# xmcd
#
# Track frame offsets:
# 150
# 22037
# 40588
# 59408
# 82811
# 102291
# 120447
# 140304
# 157712
# 180262
# 199925
# 219471
# 235971
# 255054
# 275136
# 292291
#
# Disc length: 4151 seconds
#
#
# Revision: 0
# Processed by: cddbd v1.5.1PL2 Copyright (c) Steve Scherf et al.
# Submitted via: HACP 1.20
#
DISCID=d6103510
DTITLE=ChenMingZhen03 - LiuZhuZheYiKe03
DYEAR=1900
DGENRE=
TTITLE0=01
TTITLE1=02
TTITLE2=03
TTITLE3=04
TTITLE4=05
TTITLE5=06
TTITLE6=07
TTITLE7=08
TTITLE8=09
TTITLE9=10
TTITLE10=11
TTITLE11=12
TTITLE12=13
TTITLE13=14
TTITLE14=15
TTITLE15=16
EXTD=
EXTT0=
EXTT1=
EXTT2=
EXTT3=
EXTT4=
EXTT5=
EXTT6=
EXTT7=
EXTT8=
EXTT9=
EXTT10=
EXTT11=
EXTT12=
EXTT13=
EXTT14=
EXTT15=
PLAYORDER=
